<svg id="Layer_35" enable-background="new 0 0 64 64" height="512" viewBox="0 0 64 64" width="512" xmlns="http://www.w3.org/2000/svg" xmlns:xlink="http://www.w3.org/1999/xlink"><linearGradient id="SVGID_1_" gradientUnits="userSpaceOnUse" x1="32" x2="32" y1="63" y2="1"><stop offset="0" stop-color="#9f2fff"/><stop offset="1" stop-color="#0bb1d3"/></linearGradient><path d="m49.123 47.289-10.259-4.198c-1.133-.463-1.864-1.553-1.864-2.777v-.718c3.077-2.126 5.427-5.126 6.759-8.597h.241c2.757 0 5-2.243 5-5v-9.515c0-8.537-6.947-15.484-15.485-15.484h-1.515c-4.136 0-8.025 1.611-10.95 4.536l-.552.552c-3.204.787-5.498 3.686-5.498 7.011v12.901c0 2.757 2.243 5 5 5h.241c1.332 3.471 3.682 6.47 6.759 8.597v.718c0 1.224-.731 2.313-1.864 2.776l-10.259 4.197c-6 2.455-9.877 8.23-9.877 14.712v1h54v-1c0-6.482-3.877-12.257-9.877-14.711zm-6.254 3.309-3.926 2.945 2.473-7.247.42.172zm-15.455 10.402-4.127-4.127 1.923-2.884 2.392 7.011zm-5.25-14.532.42-.172 2.473 7.247-3.926-2.945zm5.447 8.366 4.389-4.415 4.389 4.417-2.104 6.164h-4.57zm8.787 6.166 2.393-7.011 1.923 2.884-4.128 4.127zm3.164-15.462-2.452 7.185-3.698-3.721 4.271-4.271c.14.073.276.151.424.211zm-7.562-5.596c-2.129-.757-4.025-1.923-5.623-3.385l.726-2.42c.383-1.278 1.538-2.137 2.873-2.137h4.048c1.335 0 2.49.859 2.873 2.138l.726 2.419c-1.598 1.463-3.494 2.628-5.623 3.385zm5-20.942c-1.474 0-2.75.81-3.444 2h-3.113c-.694-1.19-1.97-2-3.444-2h-5.691c.428-1.182 1.283-2.178 2.455-2.764l.424-.212 14.309 1.431c1.246.125 2.337.699 3.136 1.545zm4 2v2c0 1.103-.897 2-2 2h-2c-1.103 0-2-.897-2-2s.897-2 2-2zm-12 2c0 1.103-.897 2-2 2h-2c-1.103 0-2-.897-2-2v-2h4c1.103 0 2 .897 2 2zm15.414 5.958c.379-1.482.586-3.025.586-4.607v-1.167c1.161.414 2 1.514 2 2.816 0 1.512-1.129 2.754-2.586 2.958zm-12.414-25.958h1.515c7.436 0 13.485 6.049 13.485 13.485v5.54c-.617-.467-1.337-.797-2.128-.937-.575-2.987-3.038-5.31-6.175-5.624l-13.979-1.398-2.556-6.815.302-.302c2.548-2.546 5.934-3.949 9.536-3.949zm-11.612 5.218 2.362 6.3c-2.313 1.213-3.75 3.568-3.75 6.19v.393c-.743.152-1.416.482-2 .924v-8.926c0-2.194 1.385-4.128 3.388-4.881zm-3.388 17.782c0-1.302.839-2.402 2-2.816v1.167c0 1.582.207 3.125.586 4.607-1.457-.204-2.586-1.446-2.586-2.958zm4-3c0 2.206 1.794 4 4 4h2c2.206 0 4-1.794 4-4h2c0 2.206 1.794 4 4 4h2c2.206 0 4-1.794 4-4v1.351c0 3.951-1.394 7.648-3.787 10.544l-.4-1.332c-.639-2.131-2.564-3.563-4.789-3.563h-4.048c-2.225 0-4.15 1.432-4.789 3.563l-.4 1.332c-2.393-2.896-3.787-6.593-3.787-10.544zm10.684 18.949.316.105.316-.105c.947-.316 1.855-.702 2.719-1.152.095.995.479 1.914 1.089 2.664l-4.124 4.125-4.125-4.125c.61-.75.994-1.669 1.089-2.664.864.449 1.773.836 2.72 1.152zm-5.791 2.993c.148-.061.284-.138.424-.211l4.271 4.271-3.698 3.72-2.452-7.185zm-10.259 4.197 4.233-1.732-.999 3.995 3.774 2.831-1.93 2.895 3.874 3.872h-7.586v-6h-2v6h-7.965c.373-5.255 3.665-9.842 8.599-11.861zm33.366 11.861v-6h-2v6h-7.586l3.873-3.873-1.93-2.895 3.774-2.831-.999-3.994 4.233 1.732c4.934 2.018 8.226 6.605 8.599 11.86h-7.964zm-19-27h4v2h-4z" fill="url(#SVGID_1_)"/></svg>