<?xml version="1.0" encoding="utf-8"?>
<!-- Generator: Adobe Illustrator 22.1.0, SVG Export Plug-In . SVG Version: 6.00 Build 0)  -->
<svg version="1.1" id="Layer_1" xmlns="http://www.w3.org/2000/svg" xmlns:xlink="http://www.w3.org/1999/xlink" x="0px" y="0px"
	 viewBox="0 0 398 104" style="enable-background:new 0 0 398 104;" xml:space="preserve">
<g>
	<g>
		<path d="M66.8,63.7V86h-3.7V63.7c0-4.6-0.7-8-2.1-10.4c-1.1-1.9-2.4-3.3-3.7-4.2s-3.2-1.5-5.8-2c-0.5,0-1.1-0.1-1.6-0.1
			c-3.4,0-6.7,1.4-9.8,4.1c-3.8,3.3-5.7,7.4-5.7,12.3V86h-3.6V20.3h3.6V52c1.8-2.6,4-4.7,6.6-6.2c2.8-1.6,5.7-2.4,8.7-2.4
			c0.8,0,1.6,0.1,2.5,0.2c3.1,0.5,5.6,1.3,7.4,2.4c1.8,1.1,3.3,2.9,4.7,5.2C65.8,54.1,66.7,58.3,66.8,63.7z"/>
		<path d="M108.4,44.8V86h-3.5v-4.6c-3.6,4-7.9,6-12.7,6c-0.8,0-1.6,0-2.4-0.1c-5.5-0.8-9.3-3-11.2-6.7c-1.7-3.2-2.5-7.6-2.5-13.4
			V44.8h3.7v22.4c0.1,4.5,0.8,8.2,2.1,10.9c1.8,3.8,5.1,5.6,10,5.6c3.2,0,6.4-1.3,9.4-4c1.6-1.4,2.8-3.2,3.6-5.3V44.8H108.4z"/>
		<path d="M122,20.3h3.6v65.8H122V20.3z"/>
		<path d="M243.4,63.7V86h-3.7V63.7c0-4.6-0.7-8-2.1-10.4c-1.1-1.9-2.4-3.3-3.7-4.2s-3.2-1.5-5.8-2c-0.5,0-1.1-0.1-1.6-0.1
			c-3.4,0-6.7,1.4-9.8,4.1c-3.8,3.3-5.7,7.4-5.7,12.3V86h-3.6V20.3h3.6V52c1.8-2.6,4-4.7,6.6-6.2c2.8-1.6,5.7-2.4,8.7-2.4
			c0.8,0,1.6,0.1,2.5,0.2c3.1,0.5,5.6,1.3,7.4,2.4s3.3,2.9,4.7,5.2C242.5,54.1,243.3,58.3,243.4,63.7z"/>
		<path d="M285,44.8V86h-3.5v-4.6c-3.6,4-7.9,6-12.7,6c-0.8,0-1.6,0-2.4-0.1c-5.5-0.8-9.3-3-11.2-6.7c-1.7-3.2-2.5-7.6-2.5-13.4
			V44.8h3.7v22.4c0.1,4.5,0.8,8.2,2.1,10.9c1.8,3.8,5.1,5.6,10,5.6c3.2,0,6.4-1.3,9.4-4c1.6-1.4,2.8-3.2,3.6-5.3V44.8H285z"/>
		<path d="M298.6,20.3h3.6v65.8h-3.6V20.3z"/>
	</g>
	<path d="M365.5,91.9l0.9-2c0.3-0.7,0.6-1.3,0.8-2l0.6-2.1c0.1-0.3,0.2-0.7,0.3-1l0.2-1.1l0.5-2.1c0.1-0.7,0.2-1.4,0.3-2.1l0.1-1.1
		l0.1-0.5v-0.5v-2.1c0-0.7,0-1.4-0.1-2.1L369,71l-0.4-2.1c-0.1-0.7-0.2-1.4-0.4-2.1l-0.5-2c-0.2-0.7-0.5-1.3-0.7-2
		c-0.3-0.7-0.5-1.3-0.8-2l-0.9-1.9c-0.3-0.6-0.7-1.2-1-1.8l-1.1-1.8l-1.3-1.7c-0.4-0.6-0.8-1.1-1.3-1.6l-1.4-1.5
		c-0.2-0.3-0.5-0.5-0.7-0.7l-0.8-0.7c-0.5-0.4-1-0.9-1.6-1.4l-1.7-1.2l-0.8-0.6l-0.9-0.5l-1.8-1c-0.6-0.4-1.2-0.6-1.8-0.9l-0.9-0.4
		c-0.3-0.1-0.6-0.2-1-0.3c-2.5-0.9-5.3-1.4-8-1.4h-1h-0.5h-0.5l-2,0.2c-1.3,0.2-2.7,0.4-4,0.8c-2.6,0.7-5.1,1.8-7.3,3.3
		c-2.2,1.5-4.4,3.2-6.1,5.3c-0.5,0.5-0.9,1-1.2,1.6l-0.6,0.8l-0.3,0.4l-0.3,0.4l-1,1.7c-0.3,0.6-0.6,1.2-0.9,1.8
		c-1,2.4-1.6,5-1.8,7.6c-0.1,2.6,0.2,5.2,1.1,7.7c1.6,5,5.2,9.2,9.8,11.6c2.2,1.2,4.7,1.8,7.2,1.8s5-0.6,7.3-1.8
		c2.3-1.1,4.2-2.8,5.8-4.9c0.2-0.3,0.4-0.5,0.6-0.8L344,78c0.4-0.5,0.6-1.1,0.9-1.7c0.4-1.1,0.8-2.3,1-3.6c0.1-1.2,0.1-2.5-0.1-3.7
		s-0.6-2.4-1.1-3.5c-0.6-1.1-1.3-2.1-2.1-3c-0.9-0.9-1.8-1.6-2.9-2.3c-2.1-1.2-4.6-1.5-6.9-0.9c-2.3,0.5-4.5,2-5.9,4
		c-0.7,1-1.2,2.1-1.5,3.2c-0.2,1.2-0.2,2.4,0.1,3.5c0.3,1.2,0.8,2.2,1.6,3.1c0.4,0.5,0.8,0.8,1.3,1.2c0.2,0.2,0.5,0.3,0.7,0.5
		c0.3,0.1,0.5,0.3,0.8,0.4c2.1,0.9,4.8,0.3,6.4-1.4c0.4-0.4,0.8-0.9,1.1-1.4c0.3-0.5,0.5-1,0.6-1.6c0.2-1.1,0-2.3-0.6-3.3
		s-1.6-1.8-2.7-2.1c-1.1-0.3-2.3,0-3.3,0.7c-0.5,0.4-0.9,0.8-1.1,1.4c-0.3,0.5-0.4,1.1-0.3,1.7c0.1,1.1,0.9,2.3,2,2.6
		c1.1,0.4,2.4-0.2,3-1.2c0.3-0.5,0.3-1.1,0.1-1.7c-0.2-0.5-0.7-1-1.3-1.2c-0.6-0.2-1.2,0-1.7,0.5c-0.4,0.5-0.6,1.2-0.2,1.7
		c0.2,0.3,0.4,0.5,0.7,0.6c0.3,0.1,0.7,0,0.9-0.2c0.3-0.2,0.5-0.5,0.5-0.9c0-0.3-0.2-0.7-0.5-0.9c0.3,0.2,0.6,0.5,0.6,0.9
		s-0.2,0.8-0.5,1s-0.7,0.4-1.1,0.3s-0.7-0.3-1-0.6c-0.5-0.7-0.4-1.7,0.1-2.3c0.5-0.7,1.4-1,2.2-0.9c0.9,0.2,1.5,0.8,1.9,1.5
		c0.4,0.8,0.4,1.7,0,2.5c-0.7,1.6-2.5,2.5-4.3,2.1c-1.7-0.5-3-2-3.2-3.8c-0.1-0.9,0-1.8,0.4-2.6c0.4-0.8,0.9-1.5,1.5-2.1
		c1.3-1.1,3.1-1.7,4.9-1.4s3.2,1.4,4.2,2.9c1,1.4,1.4,3.2,1.2,5c-0.1,0.9-0.4,1.7-0.8,2.5c-0.4,0.7-0.9,1.5-1.4,2.1
		c-1.2,1.3-2.7,2.2-4.3,2.6c-1.7,0.5-3.5,0.4-5.2-0.1c-3.3-1.1-5.8-4-6.7-7.3c-0.5-1.6-0.5-3.4-0.3-5.1c0.3-1.7,1-3.3,1.9-4.7
		c1.8-2.8,4.7-4.9,8-5.8c3.3-0.9,6.9-0.5,9.9,1.1c1.5,0.8,2.8,1.8,4,3s2.1,2.6,2.9,4c0.8,1.5,1.3,3.1,1.6,4.7c0.3,1.6,0.3,3.3,0.2,5
		c-0.2,1.7-0.6,3.3-1.2,4.8c-0.4,0.7-0.7,1.5-1.1,2.2l-0.6,1c-0.2,0.3-0.5,0.7-0.7,1c-1.9,2.6-4.4,4.8-7.4,6.3
		c-2.9,1.5-6.1,2.3-9.4,2.3s-6.6-0.8-9.5-2.3c-2.8-1.5-5.4-3.6-7.4-6c-2.1-2.5-3.6-5.3-4.6-8.3c-2-6.1-1.6-12.8,1-18.6
		c1.3-2.9,3.1-5.4,5.1-7.8c2-2.4,4.5-4.3,7.1-6s5.5-2.8,8.5-3.6c1.5-0.4,3-0.6,4.6-0.8l2.3-0.1h0.6h0.6l1.2,0.1
		c6.2,0.3,12.2,2.7,16.9,6.4L358,45c0.6,0.5,1.1,1,1.6,1.6l0.8,0.8c0.3,0.3,0.5,0.5,0.8,0.8l1.5,1.7c0.5,0.6,0.9,1.2,1.3,1.8
		l1.3,1.9l1.1,2c0.4,0.7,0.7,1.3,1,2l0.9,2.1c0.3,0.7,0.5,1.4,0.7,2.1c0.2,0.7,0.5,1.4,0.6,2.1l0.5,2.2c0.2,0.7,0.3,1.5,0.3,2.2
		l0.2,2.2v2.2c0,0.7,0,1.5-0.1,2.2l-0.2,2.2v0.5l-0.1,0.5l-0.2,1.1c-0.1,0.7-0.3,1.4-0.4,2.2l-0.6,2.1l-0.3,1.1
		c-0.1,0.3-0.3,0.7-0.4,1l-0.8,2c-0.2,0.7-0.6,1.3-1,2L365.5,91.9z"/>
	<path d="M157.9,68.6c0.3,0.2,0.6,0.5,0.6,0.9s-0.2,0.8-0.5,1s-0.7,0.4-1.1,0.3c-0.4-0.1-0.7-0.3-1-0.6c-0.5-0.7-0.4-1.7,0.1-2.3
		c0.5-0.7,1.4-1,2.2-0.9c0.9,0.2,1.5,0.8,1.9,1.5c0.4,0.8,0.4,1.7,0,2.5c-0.7,1.6-2.5,2.5-4.3,2.1c-1.7-0.5-3-2-3.2-3.7
		c-0.1-0.9,0-1.8,0.4-2.6c0.4-0.8,0.9-1.5,1.5-2.1c1.3-1.1,3.1-1.7,4.9-1.4c1.8,0.3,3.2,1.4,4.2,2.9c1,1.4,1.4,3.2,1.2,5
		c-0.1,0.9-0.4,1.7-0.8,2.5c-0.4,0.7-0.9,1.5-1.4,2.1c-1.2,1.3-2.7,2.2-4.3,2.6c-1.7,0.5-3.5,0.4-5.2-0.1c-3.3-1.1-5.8-4-6.7-7.3
		c-0.5-1.6-0.5-3.4-0.3-5.1c0.3-1.7,1-3.3,1.9-4.7c1.8-2.8,4.7-4.9,8-5.8c3.3-0.9,6.9-0.5,9.9,1.1c1.5,0.8,2.8,1.8,4,3
		s2.1,2.6,2.9,4c0.8,1.5,1.3,3.1,1.6,4.7s0.3,3.3,0.2,5c-0.2,1.7-0.6,3.3-1.2,4.8c-0.4,0.7-0.7,1.5-1.1,2.2l-0.6,1
		c-0.2,0.3-0.5,0.7-0.7,1c-1.9,2.6-4.4,4.8-7.4,6.3c-2.9,1.5-6.1,2.3-9.4,2.3c-3.3,0-6.6-0.8-9.5-2.3c-2.8-1.5-5.4-3.6-7.4-6
		c-2.1-2.5-3.6-5.3-4.6-8.3c-2-6.1-1.6-12.8,1-18.6c1.3-2.9,3.1-5.4,5.1-7.8c2-2.4,4.5-4.3,7.1-6s5.5-2.8,8.5-3.6
		c1.5-0.4,3-0.6,4.6-0.8l2.3-0.1h0.6h0.6l1.2,0.1c6.2,0.3,12.2,2.7,16.9,6.4l1.8,1.4c0.6,0.5,1.1,1,1.6,1.6l0.8,0.8
		c0.3,0.3,0.5,0.5,0.8,0.8l1.5,1.7c0.5,0.6,0.9,1.2,1.3,1.8l1.3,1.9l1.1,2c0.4,0.7,0.7,1.3,1,2l0.9,2.1c0.3,0.7,0.5,1.4,0.7,2.1
		c0.2,0.7,0.5,1.4,0.6,2.1l0.5,2.2c0.2,0.7,0.3,1.5,0.3,2.2l0.2,2.2v2.2c0,0.7,0,1.5-0.1,2.2l-0.2,2.2v0.5l-0.1,0.5l-0.2,1.1
		c-0.1,0.7-0.3,1.4-0.4,2.2l-0.6,2.1l-0.3,1.1c-0.1,0.3-0.3,0.7-0.4,1l-0.8,2c-0.2,0.7-0.6,1.3-1,2l-1,1.9l0.9-2
		c0.3-0.7,0.6-1.3,0.8-2l0.6-2.1c0.1-0.3,0.2-0.7,0.3-1l0.2-1.1l0.5-2.1c0.1-0.7,0.2-1.4,0.3-2.1l0.1-1.1l0.1-0.5v-0.5v-2.1
		c0-0.7,0-1.4-0.1-2.1l-0.2-2.1l-0.4-2.1c-0.1-0.7-0.2-1.4-0.4-2.1l-0.5-2c-0.2-0.7-0.5-1.3-0.7-2c-0.3-0.7-0.5-1.3-0.8-2l-0.9-1.9
		c-0.3-0.6-0.7-1.2-1-1.8l-1.1-1.8l-1.3-1.7c-0.4-0.6-0.8-1.1-1.3-1.6l-1.4-1.5c-0.2-0.3-0.5-0.5-0.7-0.7l-0.8-0.7
		c-0.5-0.4-1-0.9-1.6-1.4l-1.7-1.2l-0.8-0.6l-0.9-0.5l-1.8-1c-0.6-0.4-1.2-0.6-1.8-0.9l-0.9-0.4c-0.3-0.1-0.6-0.2-1-0.3
		c-2.5-0.9-5.3-1.4-8-1.4h-1h-0.5h-0.5l-2,0.2c-1.3,0.2-2.7,0.4-4,0.8c-2.6,0.7-5.1,1.8-7.3,3.3s-4.4,3.2-6.1,5.3
		c-0.5,0.5-0.9,1-1.2,1.6l-0.6,0.8l-0.3,0.4l-0.3,0.4l-1,1.7c-0.3,0.6-0.6,1.2-0.9,1.8c-2.1,4.8-2.4,10.4-0.7,15.3
		c1.6,5,5.2,9.2,9.8,11.6c2.2,1.2,4.7,1.8,7.2,1.8s5-0.6,7.3-1.8c2.3-1.1,4.2-2.8,5.8-4.9c0.2-0.3,0.4-0.5,0.6-0.8l0.5-0.8
		c0.4-0.5,0.6-1.1,0.9-1.7c0.4-1.1,0.8-2.3,1-3.6c0.1-1.2,0.1-2.5-0.1-3.7c-0.2-1.2-0.6-2.4-1.1-3.5c-0.6-1.1-1.3-2.1-2.1-3
		c-0.9-0.9-1.8-1.6-2.9-2.3c-2.1-1.2-4.6-1.5-6.9-0.9c-2.3,0.5-4.5,2-5.9,4c-0.7,1-1.2,2.1-1.5,3.2c-0.2,1.2-0.2,2.4,0.1,3.5
		c0.3,1.2,0.8,2.2,1.6,3.1c0.4,0.5,0.8,0.8,1.3,1.2c0.2,0.2,0.5,0.3,0.7,0.5c0.3,0.1,0.5,0.3,0.8,0.4c2.1,0.9,4.8,0.3,6.5-1.4
		c0.4-0.4,0.8-0.9,1.1-1.4s0.5-1,0.6-1.6c0.2-1.1,0-2.3-0.6-3.3s-1.6-1.8-2.7-2.1c-1.1-0.3-2.3,0-3.3,0.7c-0.5,0.4-0.9,0.8-1.1,1.4
		c-0.3,0.5-0.4,1.1-0.3,1.7c0,0.6,0.3,1.1,0.6,1.6s0.8,0.9,1.4,1c1.1,0.4,2.4-0.2,3-1.2c0.3-0.5,0.3-1.1,0.1-1.7
		c-0.2-0.5-0.7-1-1.3-1.2s-1.2,0-1.7,0.5c-0.4,0.5-0.6,1.2-0.2,1.7c0.2,0.3,0.4,0.5,0.7,0.6s0.7,0,0.9-0.2c0.3-0.2,0.5-0.5,0.5-0.9
		C158.4,69.2,158.2,68.8,157.9,68.6z"/>
</g>
<g>
	<path d="M375.7,39.2c-5.2,0-9.4-4.3-9.4-9.4c0-5.3,4.3-9.5,9.7-9.5c5.1,0,9.3,4.3,9.3,9.5C385.2,35.1,381,39.2,375.7,39.2z
		 M375.7,21.8c-4.3,0-7.8,3.5-7.8,7.9c0,4.4,3.5,8,7.7,8c4.4,0,7.9-3.5,7.9-7.9C383.5,25.4,380,21.8,375.7,21.8z"/>
	<path d="M378.9,29.8c1,0.6,1.1,1.5,1.1,2.4c0,0.9-0.1,1.8,0.5,2.5c0,0.1,0,0.2,0,0.3c0,0.1,0,0.2-0.1,0.3c-0.5,0-1.1,0-1.6,0
		c-0.2,0-0.4-0.2-0.4-0.4c-0.1-0.6-0.2-1.2-0.2-1.8c0-0.2,0-0.5,0-0.7c0-1.2-0.5-1.6-1.7-1.6c-1,0-2.1,0-3.2,0c0,1.5,0,3,0,4.5
		c-0.6,0-1.1,0-1.7,0c0-3.6,0-7.2,0-11c0.3,0,0.5,0,0.8,0c1.4,0,2.8,0,4.3,0c0.3,0,0.6,0,0.9,0c1.2,0.2,2.1,0.7,2.4,1.9
		c0.3,1.3,0.3,2.5-0.8,3.4C379.1,29.6,379.1,29.7,378.9,29.8z M373.4,29.1c1.2,0,2.3,0,3.4,0c0.3,0,0.6-0.1,0.9-0.2
		c0.6-0.3,0.8-0.9,0.7-1.7c-0.1-0.7-0.4-1.2-1.1-1.2c-1.3-0.1-2.6,0-4,0C373.4,26.9,373.4,27.9,373.4,29.1z"/>
</g>
</svg>
